<svg width="31" height="34" viewBox="0 0 31 34" fill="none" xmlns="http://www.w3.org/2000/svg">
<path d="M8.20572 9.57769L8.5219 9.69983C12.8707 11.3798 18.1083 11.3797 22.457 9.69804L22.7695 9.5772L23.0001 9.82027C24.8981 11.8211 26.4858 14.0948 27.7105 16.5658L27.7115 16.5677C28.9873 19.1703 29.7037 21.8133 29.5867 24.1301L29.5867 24.1301C29.4723 26.3912 28.5716 28.3572 26.5218 29.806L26.5218 29.806C24.4129 31.296 20.9467 32.3336 15.5354 32.3336C10.1198 32.3336 6.63966 31.3141 4.51316 29.8421L4.51293 29.842C2.44943 28.412 1.53763 26.472 1.41014 24.2374L8.20572 9.57769ZM8.20572 9.57769L7.97519 9.82617M8.20572 9.57769L7.97519 9.82617M7.97519 9.82617C6.15729 11.7856 4.46566 14.1897 3.25095 16.6929L3.25091 16.6929M7.97519 9.82617L3.25091 16.6929M3.25091 16.6929C1.98037 19.3123 1.2784 21.9432 1.41013 24.2372L3.25091 16.6929ZM25.3428 3.18136C25.7832 3.39921 26.1642 3.60759 26.4775 3.79428L23.3457 8.3725L23.1141 8.71114L23.401 9.00444C25.3394 10.9861 27.1697 13.5163 28.4805 16.1919C29.7935 18.8721 30.5679 21.6624 30.441 24.1735C30.3151 26.6637 29.3054 28.8863 27.0163 30.5035C24.7051 32.1363 21.0382 33.1881 15.5364 33.1881C10.0332 33.1881 6.35436 32.1551 4.02802 30.5441C1.72448 28.9489 0.699103 26.7543 0.558033 24.2856C0.415712 21.7951 1.17576 19.0153 2.48354 16.3201C3.7889 13.6299 5.62285 11.0598 7.58124 8.99926L7.85891 8.70711L7.63235 8.37375L4.52247 3.79791C4.67984 3.70521 4.8536 3.60746 5.04301 3.50656L5.04302 3.50656L5.04474 3.50564C5.23531 3.40316 5.44085 3.29767 5.66136 3.19013L5.85727 3.09458C8.10344 2.02401 11.6645 0.809448 15.5364 0.809448C19.4384 0.809448 22.9975 2.04283 25.2165 3.12005C25.2165 3.12005 25.2165 3.12005 25.2165 3.12006L25.3412 3.18057C25.3417 3.18083 25.3422 3.1811 25.3428 3.18136ZM21.7245 9.05917L21.8779 9.00466L21.9698 8.87033L24.7117 4.86178L25.2968 4.00635L24.2631 4.08078C21.6696 4.26751 18.6003 4.87479 15.6554 5.7274C13.6714 6.30056 11.4387 6.21929 9.33386 5.83106C8.80462 5.73294 8.27901 5.61613 7.75803 5.48086L6.47261 5.14712L7.21875 6.24574L8.99909 8.86711L9.09097 9.00238L9.24502 9.05723C13.1692 10.4543 17.7996 10.4542 21.7245 9.05917ZM7.08002 3.48035L5.80043 4.02347L7.1328 4.41985C7.88966 4.64501 8.68211 4.84132 9.48767 4.99046L9.48813 4.99055C11.523 5.36535 13.6079 5.42979 15.4168 4.90582L15.4175 4.90561C17.3859 4.33216 19.388 3.88116 21.4122 3.5552L21.4768 2.58279C19.7353 2.05845 17.6905 1.66397 15.5354 1.66397C12.2536 1.66397 9.20629 2.57787 7.08002 3.48035Z" fill="#FAFAFA" stroke="#FAFAFA"/>
</svg>
