<svg width="30" height="37" viewBox="0 0 30 37" fill="none" xmlns="http://www.w3.org/2000/svg">
<path d="M5.83301 9.83329V6.16663C5.83303 5.1049 6.14036 4.06588 6.71789 3.17498C7.29543 2.28407 8.11848 1.57937 9.0877 1.14594C10.0569 0.7125 11.1309 0.568859 12.1799 0.732351C13.229 0.895842 14.2083 1.35948 14.9997 2.06729C15.791 1.35948 16.7704 0.895842 17.8194 0.732351C18.8685 0.568859 19.9424 0.7125 20.9117 1.14594C21.8809 1.57937 22.7039 2.28407 23.2815 3.17498C23.859 4.06588 24.1663 5.1049 24.1663 6.16663V9.83329H26.9163C27.6457 9.83329 28.3452 10.123 28.8609 10.6387C29.3766 11.1545 29.6663 11.8539 29.6663 12.5833V30.9258C29.6663 32.6252 28.9913 34.2549 27.7896 35.4566C26.588 36.6582 24.9582 37.3333 23.2588 37.3333H7.66634C5.72142 37.3333 3.85616 36.5607 2.48089 35.1854C1.10562 33.8101 0.333008 31.9449 0.333008 30V12.5833C0.333008 11.8539 0.622739 11.1545 1.13846 10.6387C1.65419 10.123 2.35366 9.83329 3.08301 9.83329H5.83301ZM17.9972 34.5833C17.2493 33.5104 16.8493 32.2336 16.8513 30.9258V12.5833H3.08301V30C3.08301 30.6019 3.20156 31.1979 3.43189 31.7539C3.66223 32.31 3.99983 32.8153 4.42544 33.2409C4.85104 33.6665 5.3563 34.0041 5.91238 34.2344C6.46845 34.4647 7.06445 34.5833 7.66634 34.5833H17.9972ZM14.083 9.83329V6.16663C14.083 5.43728 13.7933 4.73781 13.2776 4.22208C12.7618 3.70636 12.0624 3.41663 11.333 3.41663C10.6037 3.41663 9.90419 3.70636 9.38846 4.22208C8.87274 4.73781 8.58301 5.43728 8.58301 6.16663V9.83329H14.083ZM16.833 9.83329H21.4163V6.16663C21.4164 5.60056 21.2418 5.04826 20.9163 4.58513C20.5908 4.12199 20.1303 3.77059 19.5977 3.57888C19.0651 3.38717 18.4863 3.36449 17.9403 3.51395C17.3943 3.6634 16.9077 3.97771 16.547 4.41396C16.7322 4.96396 16.833 5.55429 16.833 6.16663V9.83329ZM19.6013 30.9258C19.6013 31.8958 19.9867 32.8261 20.6726 33.512C21.3585 34.198 22.2888 34.5833 23.2588 34.5833C24.2289 34.5833 25.1592 34.198 25.8451 33.512C26.531 32.8261 26.9163 31.8958 26.9163 30.9258V12.5833H19.6013V30.9258Z" fill="white"/>
</svg>